<mxfile host="app.diagrams.net" modified="2022-03-27T17:51:12.249Z" agent="5.0 (Windows NT 10.0; Win64; x64) AppleWebKit/537.36 (KHTML, like Gecko) Chrome/98.0.4758.109 Safari/537.36 OPR/84.0.4316.50" etag="-ZTp_LYvKEBttXSuUIzq" version="17.2.4" type="github">
  <diagram id="IlGLftOpRdCaFG9BucMV" name="Page-1">
    <mxGraphModel dx="997" dy="540" grid="1" gridSize="10" guides="1" tooltips="1" connect="1" arrows="1" fold="1" page="1" pageScale="1" pageWidth="827" pageHeight="1169" math="0" shadow="0">
      <root>
        <mxCell id="0" />
        <mxCell id="uQy0YrSj32MQDyuvrDkm-13" value="Untitled Layer" parent="0" />
        <mxCell id="uQy0YrSj32MQDyuvrDkm-14" value="" style="rounded=0;whiteSpace=wrap;html=1;" vertex="1" parent="uQy0YrSj32MQDyuvrDkm-13">
          <mxGeometry x="160" y="100" width="390" height="60" as="geometry" />
        </mxCell>
        <mxCell id="uQy0YrSj32MQDyuvrDkm-15" value="" style="rounded=0;whiteSpace=wrap;html=1;" vertex="1" parent="uQy0YrSj32MQDyuvrDkm-13">
          <mxGeometry x="160" y="160" width="30" height="330" as="geometry" />
        </mxCell>
        <mxCell id="uQy0YrSj32MQDyuvrDkm-16" value="" style="rounded=0;whiteSpace=wrap;html=1;" vertex="1" parent="uQy0YrSj32MQDyuvrDkm-13">
          <mxGeometry x="190" y="160" width="80" height="330" as="geometry" />
        </mxCell>
        <mxCell id="uQy0YrSj32MQDyuvrDkm-17" value="" style="whiteSpace=wrap;html=1;aspect=fixed;" vertex="1" parent="uQy0YrSj32MQDyuvrDkm-13">
          <mxGeometry x="290" y="190" width="80" height="80" as="geometry" />
        </mxCell>
        <mxCell id="uQy0YrSj32MQDyuvrDkm-18" value="" style="whiteSpace=wrap;html=1;aspect=fixed;" vertex="1" parent="uQy0YrSj32MQDyuvrDkm-13">
          <mxGeometry x="400" y="190" width="80" height="80" as="geometry" />
        </mxCell>
        <mxCell id="uQy0YrSj32MQDyuvrDkm-19" value="" style="whiteSpace=wrap;html=1;aspect=fixed;" vertex="1" parent="uQy0YrSj32MQDyuvrDkm-13">
          <mxGeometry x="290" y="285" width="80" height="80" as="geometry" />
        </mxCell>
        <mxCell id="uQy0YrSj32MQDyuvrDkm-20" value="" style="whiteSpace=wrap;html=1;aspect=fixed;" vertex="1" parent="uQy0YrSj32MQDyuvrDkm-13">
          <mxGeometry x="400" y="285" width="80" height="80" as="geometry" />
        </mxCell>
        <mxCell id="uQy0YrSj32MQDyuvrDkm-21" value="" style="rounded=0;whiteSpace=wrap;html=1;" vertex="1" parent="uQy0YrSj32MQDyuvrDkm-13">
          <mxGeometry x="160" y="100" width="520" height="390" as="geometry" />
        </mxCell>
        <mxCell id="uQy0YrSj32MQDyuvrDkm-22" value="" style="whiteSpace=wrap;html=1;aspect=fixed;" vertex="1" parent="uQy0YrSj32MQDyuvrDkm-13">
          <mxGeometry x="550" y="190" width="80" height="80" as="geometry" />
        </mxCell>
        <mxCell id="uQy0YrSj32MQDyuvrDkm-26" value="" style="whiteSpace=wrap;html=1;aspect=fixed;" vertex="1" parent="uQy0YrSj32MQDyuvrDkm-13">
          <mxGeometry x="550" y="290" width="80" height="80" as="geometry" />
        </mxCell>
        <mxCell id="1" parent="0" />
        <mxCell id="uQy0YrSj32MQDyuvrDkm-2" value="" style="rounded=0;whiteSpace=wrap;html=1;" vertex="1" parent="1">
          <mxGeometry x="160" y="100" width="520" height="60" as="geometry" />
        </mxCell>
        <mxCell id="uQy0YrSj32MQDyuvrDkm-3" value="" style="rounded=0;whiteSpace=wrap;html=1;" vertex="1" parent="1">
          <mxGeometry x="160" y="160" width="60" height="330" as="geometry" />
        </mxCell>
        <mxCell id="uQy0YrSj32MQDyuvrDkm-7" value="" style="whiteSpace=wrap;html=1;aspect=fixed;" vertex="1" parent="1">
          <mxGeometry x="290" y="190" width="80" height="80" as="geometry" />
        </mxCell>
        <mxCell id="uQy0YrSj32MQDyuvrDkm-8" value="" style="whiteSpace=wrap;html=1;aspect=fixed;" vertex="1" parent="1">
          <mxGeometry x="420" y="190" width="80" height="80" as="geometry" />
        </mxCell>
        <mxCell id="uQy0YrSj32MQDyuvrDkm-9" value="" style="whiteSpace=wrap;html=1;aspect=fixed;" vertex="1" parent="1">
          <mxGeometry x="290" y="290" width="80" height="80" as="geometry" />
        </mxCell>
        <mxCell id="uQy0YrSj32MQDyuvrDkm-10" value="" style="whiteSpace=wrap;html=1;aspect=fixed;" vertex="1" parent="1">
          <mxGeometry x="420" y="290" width="80" height="80" as="geometry" />
        </mxCell>
        <mxCell id="uQy0YrSj32MQDyuvrDkm-28" value="" style="rounded=0;whiteSpace=wrap;html=1;" vertex="1" parent="1">
          <mxGeometry x="600" y="110" width="30" height="30" as="geometry" />
        </mxCell>
        <mxCell id="uQy0YrSj32MQDyuvrDkm-32" value="" style="sketch=0;outlineConnect=0;fontColor=#232F3E;gradientColor=none;fillColor=#232F3D;strokeColor=none;dashed=0;verticalLabelPosition=bottom;verticalAlign=top;align=center;html=1;fontSize=12;fontStyle=0;aspect=fixed;pointerEvents=1;shape=mxgraph.aws4.user;" vertex="1" parent="1">
          <mxGeometry x="602" y="112" width="28" height="28" as="geometry" />
        </mxCell>
        <mxCell id="uQy0YrSj32MQDyuvrDkm-33" value="" style="fontColor=#0066CC;verticalAlign=top;verticalLabelPosition=bottom;labelPosition=center;align=center;html=1;outlineConnect=0;fillColor=#CCCCCC;strokeColor=#6881B3;gradientColor=none;gradientDirection=north;strokeWidth=2;shape=mxgraph.networks.phone_1;" vertex="1" parent="1">
          <mxGeometry x="170" y="190" width="40" height="30" as="geometry" />
        </mxCell>
        <mxCell id="uQy0YrSj32MQDyuvrDkm-34" value="" style="shape=image;html=1;verticalAlign=top;verticalLabelPosition=bottom;labelBackgroundColor=#ffffff;imageAspect=0;aspect=fixed;image=https://cdn0.iconfinder.com/data/icons/education-1006/32/backpack_bag_school_travel_rucksack_luggage_schoolbag_baggage_backpacker_traveler-128.png" vertex="1" parent="1">
          <mxGeometry x="172.5" y="240" width="40" height="40" as="geometry" />
        </mxCell>
        <mxCell id="uQy0YrSj32MQDyuvrDkm-35" value="" style="shape=image;html=1;verticalAlign=top;verticalLabelPosition=bottom;labelBackgroundColor=#ffffff;imageAspect=0;aspect=fixed;image=https://cdn1.iconfinder.com/data/icons/birthday-58/32/Icon-Extra-04-128.png" vertex="1" parent="1">
          <mxGeometry x="172.5" y="300" width="40" height="40" as="geometry" />
        </mxCell>
        <mxCell id="uQy0YrSj32MQDyuvrDkm-36" value="" style="html=1;verticalLabelPosition=bottom;align=center;labelBackgroundColor=#ffffff;verticalAlign=top;strokeWidth=2;strokeColor=#0080F0;shadow=0;dashed=0;shape=mxgraph.ios7.icons.chat;" vertex="1" parent="1">
          <mxGeometry x="172.5" y="367.5" width="35" height="22.5" as="geometry" />
        </mxCell>
        <mxCell id="uQy0YrSj32MQDyuvrDkm-37" value="" style="shape=image;html=1;verticalAlign=top;verticalLabelPosition=bottom;labelBackgroundColor=#ffffff;imageAspect=0;aspect=fixed;image=https://cdn4.iconfinder.com/data/icons/sports-outline-24-px/24/Fast_footwear_forward_runner_shoe_speed_-128.png" vertex="1" parent="1">
          <mxGeometry x="300" y="200" width="60" height="60" as="geometry" />
        </mxCell>
        <mxCell id="uQy0YrSj32MQDyuvrDkm-38" value="" style="shape=image;html=1;verticalAlign=top;verticalLabelPosition=bottom;labelBackgroundColor=#ffffff;imageAspect=0;aspect=fixed;image=https://cdn1.iconfinder.com/data/icons/unicons-line-vol-1/24/calculator-128.png" vertex="1" parent="1">
          <mxGeometry x="292.5" y="292.5" width="75" height="75" as="geometry" />
        </mxCell>
        <mxCell id="uQy0YrSj32MQDyuvrDkm-39" value="" style="sketch=0;aspect=fixed;pointerEvents=1;shadow=0;dashed=0;html=1;strokeColor=none;labelPosition=center;verticalLabelPosition=bottom;verticalAlign=top;align=center;fillColor=#00188D;shape=mxgraph.azure.computer" vertex="1" parent="1">
          <mxGeometry x="426.66" y="200" width="66.67" height="60" as="geometry" />
        </mxCell>
        <mxCell id="uQy0YrSj32MQDyuvrDkm-41" value="" style="shape=rect;fillColor=#e0e0e0;strokeColor=none;" vertex="1" parent="1">
          <mxGeometry x="300" y="110" width="260" height="40" as="geometry" />
        </mxCell>
        <mxCell id="uQy0YrSj32MQDyuvrDkm-42" value="" style="html=1;strokeWidth=1;shadow=0;dashed=0;shape=mxgraph.ios7ui.marginRect;rx=3;ry=3;rectMargin=5;strokeColor=none;" vertex="1" parent="uQy0YrSj32MQDyuvrDkm-41">
          <mxGeometry width="260" height="40" as="geometry" />
        </mxCell>
        <mxCell id="uQy0YrSj32MQDyuvrDkm-43" value="Search" style="shape=mxgraph.ios7.icons.looking_glass;strokeColor=#e0e0e0;fillColor=none;fontColor=#e0e0e0;labelPosition=right;verticalLabelPosition=middle;align=left;verticalAlign=middle;fontSize=6;fontStyle=0;spacingTop=2;sketch=0;" vertex="1" parent="uQy0YrSj32MQDyuvrDkm-41">
          <mxGeometry x="0.5" y="0.5" width="6" height="6" relative="1" as="geometry">
            <mxPoint x="-17" y="-3" as="offset" />
          </mxGeometry>
        </mxCell>
      </root>
    </mxGraphModel>
  </diagram>
</mxfile>
